<?xml version="1.0" encoding="UTF-8"?>
<svg id="Camada_2" data-name="Camada 2" xmlns="http://www.w3.org/2000/svg" viewBox="0 0 385.41 58.64">
  <defs>
    <style>
      .cls-1 {
        fill: #f98392;
      }
    </style>
  </defs>
  <g id="Camada_1-2" data-name="Camada 1">
    <g>
      <path class="cls-1" d="M24.26,9.53c.59-1.21,1.41-2.16,2.47-2.87,1.06-.71,2.27-1.06,3.62-1.06,2.18,0,3.87.97,5.06,2.92.14.3.3.42.48.33.1-.02.15-.1.15-.24,0-.1-.07-.29-.21-.58-.22-.43-.33-.91-.33-1.46v-.73h3.88v14.35c0,2.53-.7,4.47-2.09,5.79-1.39,1.33-3.33,1.99-5.81,1.99s-4.18-.54-5.47-1.63c-1.28-1.08-1.99-2.45-2.13-4.09h3.82c.22,1.7,1.46,2.55,3.72,2.55,2.72,0,4.09-1.49,4.09-4.47,0-.53.11-1,.33-1.43.14-.28.21-.47.21-.55,0-.1-.05-.17-.15-.21l-.12-.03c-.12,0-.21.05-.27.14s-.09.15-.09.17c-1.15,1.99-2.84,2.98-5.06,2.98-1.35,0-2.56-.35-3.62-1.06-1.06-.71-1.88-1.67-2.47-2.87-.59-1.21-.88-2.53-.88-3.97s.29-2.76.88-3.97ZM33.46,17.29c.65-.4,1.15-.93,1.5-1.6.35-.67.53-1.4.53-2.19s-.18-1.52-.53-2.19c-.35-.67-.85-1.2-1.5-1.6-.65-.4-1.38-.59-2.21-.59-1.29,0-2.28.42-2.97,1.25-.69.83-1.03,1.88-1.03,3.13s.34,2.3,1.03,3.13c.69.83,1.68,1.25,2.97,1.25.83,0,1.56-.2,2.21-.59Z"/>
      <path class="cls-1" d="M43.57,20.41c-1.03-1.16-1.54-2.85-1.54-5.08V5.84h3.88v8.15c0,1.74.23,2.95.7,3.62.46.67,1.22,1,2.27,1,.75,0,1.45-.26,2.11-.79s1.19-1.27,1.59-2.22c.4-.95.61-2.03.61-3.22v-6.54h3.88v16.06h-3.88v-1c0-.45.04-.83.12-1.14.08-.31.2-.66.36-1.05.1-.26.15-.43.15-.49,0-.18-.08-.28-.24-.3h-.09c-.14,0-.26.12-.36.36-.51,1.01-1.21,1.91-2.11,2.69-.9.78-1.97,1.17-3.22,1.17-1.78,0-3.18-.58-4.21-1.73Z"/>
      <path class="cls-1" d="M60.2,0h3.88v3.89h-3.88V0ZM60.2,5.84h3.88v16.06h-3.88V5.84Z"/>
      <path class="cls-1" d="M67.84,13.79c1.06-.8,2.47-1.25,4.22-1.35l1.54-.06c1.37-.04,2.35-.13,2.94-.27.58-.14.87-.49.85-1.03-.02-.69-.25-1.25-.7-1.67s-1.28-.64-2.51-.64-2.14.22-2.66.65-.85,1.03-.97,1.78h-3.82c.26-1.91,1.1-3.32,2.51-4.23,1.41-.91,3.1-1.37,5.06-1.37,2.14,0,3.84.53,5.09,1.58s1.88,3,1.88,5.84v8.88h-3.88v-1.13c0-.61.15-1.2.45-1.76.08-.2.12-.35.12-.46,0-.12-.05-.2-.15-.24l-.12-.03c-.12,0-.21.06-.27.17s-.09.18-.09.2c-.95,2.33-2.79,3.5-5.51,3.5-.99,0-1.91-.2-2.77-.61-.86-.41-1.54-.96-2.04-1.67-.51-.71-.76-1.5-.76-2.37,0-1.66.53-2.89,1.59-3.7ZM75.81,14.55c-.66.17-1.68.33-3.07.47-.87.1-1.52.33-1.95.68-.43.35-.65.88-.65,1.57,0,.59.23,1.06.68,1.43.45.36,1.04.55,1.77.55.26,0,.46,0,.61-.03,1.19-.16,2.18-.68,2.98-1.55.8-.87,1.21-2.22,1.23-4.04-.4.45-.93.76-1.59.93Z"/>
      <path class="cls-1" d="M108.89,21.9h-3.88v-.7c0-.53.14-1.07.42-1.64.1-.16.15-.31.15-.46,0-.12-.07-.21-.21-.27l-.09-.03c-.12,0-.21.05-.26.15-.05.1-.09.16-.11.18-.62.93-1.34,1.67-2.15,2.21-.81.54-1.78.81-2.91.81-1.35,0-2.56-.36-3.62-1.09-1.06-.73-1.88-1.72-2.47-2.98-.59-1.26-.88-2.66-.88-4.2s.29-2.94.88-4.2c.59-1.26,1.41-2.25,2.47-2.98,1.06-.73,2.27-1.09,3.62-1.09,1.19,0,2.21.27,3.07.81.86.54,1.52,1.26,1.98,2.17.16.35.34.47.54.36.1-.06.15-.15.15-.27s-.06-.3-.18-.55c-.28-.57-.42-1.13-.42-1.67V0h3.88v21.9ZM102.98,17.97c.65-.43,1.15-1,1.5-1.73.35-.73.53-1.52.53-2.37s-.18-1.64-.53-2.37c-.35-.73-.85-1.31-1.5-1.73s-1.38-.64-2.21-.64c-1.29,0-2.28.45-2.97,1.35-.69.9-1.03,2.03-1.03,3.39s.34,2.49,1.03,3.39c.69.9,1.68,1.35,2.97,1.35.83,0,1.56-.21,2.21-.64Z"/>
      <path class="cls-1" d="M126.24,14.84h-11.63c.14,1.22.59,2.17,1.33,2.86.75.69,1.73,1.03,2.94,1.03,1.64,0,2.71-.81,3.24-2.43h3.94c-.36,1.76-1.15,3.18-2.35,4.24s-2.82,1.6-4.86,1.6c-1.68,0-3.12-.35-4.33-1.06-1.21-.71-2.13-1.69-2.76-2.93-.63-1.25-.94-2.67-.94-4.27s.32-3.12.97-4.36c.65-1.25,1.57-2.21,2.77-2.89s2.61-1.02,4.22-1.02c1.31,0,2.54.28,3.68.84,1.14.56,2.07,1.44,2.79,2.65.72,1.21,1.07,2.73,1.07,4.58,0,.32-.03.72-.09,1.19ZM122.46,12.17c-.08-1.01-.42-1.83-1.03-2.46s-1.44-.94-2.51-.94c-2.3,0-3.69,1.14-4.15,3.41h7.69Z"/>
      <path class="cls-1" d="M152.4,14.84h-11.63c.14,1.22.59,2.17,1.33,2.86.75.69,1.73,1.03,2.94,1.03,1.64,0,2.71-.81,3.24-2.43h3.94c-.36,1.76-1.15,3.18-2.35,4.24s-2.82,1.6-4.86,1.6c-1.68,0-3.12-.35-4.33-1.06-1.21-.71-2.13-1.69-2.76-2.93-.63-1.25-.94-2.67-.94-4.27s.32-3.12.97-4.36c.65-1.25,1.57-2.21,2.77-2.89s2.61-1.02,4.22-1.02c1.31,0,2.54.28,3.68.84,1.14.56,2.07,1.44,2.79,2.65.72,1.21,1.07,2.73,1.07,4.58,0,.32-.03.72-.09,1.19ZM148.62,12.17c-.08-1.01-.42-1.83-1.03-2.46s-1.44-.94-2.51-.94c-2.3,0-3.69,1.14-4.15,3.41h7.69Z"/>
      <path class="cls-1" d="M158.59,18.34c.54.51,1.44.76,2.71.76,1.17,0,2.01-.17,2.53-.52.52-.34.77-.81.77-1.4,0-.39-.17-.68-.5-.88-.33-.2-.79-.36-1.38-.47-.58-.11-1.5-.24-2.75-.38-2.18-.26-3.65-.86-4.41-1.78-.76-.92-1.14-1.98-1.14-3.18,0-.89.26-1.71.79-2.45.53-.74,1.3-1.33,2.33-1.78,1.03-.45,2.27-.67,3.72-.67,2.04,0,3.64.48,4.81,1.44,1.17.96,1.81,2.2,1.91,3.73h-3.81c-.06-.61-.32-1.12-.77-1.52-.45-.41-1.2-.61-2.22-.61-1.92,0-2.88.55-2.88,1.64,0,.3.08.56.23.76.15.2.48.39.98.55.5.16,1.25.29,2.24.4,2.12.22,3.77.71,4.95,1.48,1.18.76,1.77,1.9,1.77,3.42,0,1.68-.63,2.98-1.89,3.89-1.26.91-3.06,1.37-5.4,1.37s-4.01-.5-5.25-1.51c-1.24-1-1.9-2.39-1.98-4.15h3.82c.02.73.3,1.35.83,1.86Z"/>
      <path class="cls-1" d="M175.99,9.25v7.33c0,.65.03,1.09.08,1.34.05.24.18.4.39.47.21.07.61.11,1.2.11h2.7v3.41h-3.51c-1.11,0-2.01-.15-2.7-.44-.69-.29-1.2-.8-1.53-1.51-.33-.71-.5-1.7-.5-2.98v-7.73h-2.91v-3.41h2.91V1.46h3.88v4.38h4.36v3.41h-4.36Z"/>
      <path class="cls-1" d="M183.64,13.79c1.06-.8,2.47-1.25,4.22-1.35l1.54-.06c1.37-.04,2.35-.13,2.94-.27.58-.14.87-.49.85-1.03-.02-.69-.25-1.25-.7-1.67s-1.28-.64-2.51-.64-2.14.22-2.66.65-.85,1.03-.97,1.78h-3.82c.26-1.91,1.1-3.32,2.51-4.23,1.41-.91,3.1-1.37,5.06-1.37,2.14,0,3.84.53,5.09,1.58s1.88,3,1.88,5.84v8.88h-3.88v-1.13c0-.61.15-1.2.45-1.76.08-.2.12-.35.12-.46,0-.12-.05-.2-.15-.24l-.12-.03c-.12,0-.21.06-.27.17s-.09.18-.09.2c-.95,2.33-2.79,3.5-5.51,3.5-.99,0-1.91-.2-2.77-.61-.86-.41-1.54-.96-2.04-1.67-.51-.71-.76-1.5-.76-2.37,0-1.66.53-2.89,1.59-3.7ZM191.6,14.55c-.66.17-1.68.33-3.07.47-.87.1-1.52.33-1.95.68-.43.35-.65.88-.65,1.57,0,.59.23,1.06.68,1.43.45.36,1.04.55,1.77.55.26,0,.46,0,.61-.03,1.19-.16,2.18-.68,2.98-1.55.8-.87,1.21-2.22,1.23-4.04-.4.45-.93.76-1.59.93Z"/>
      <path class="cls-1" d="M203.67,8.12c-.02.06-.06.15-.11.27-.05.12-.08.22-.08.3,0,.1.05.18.15.24l.12.03c.14,0,.24-.06.3-.18s.1-.19.12-.21c.53-.91,1.21-1.64,2.04-2.17s1.84-.81,3.01-.81c1.35,0,2.56.36,3.62,1.09,1.06.73,1.88,1.72,2.47,2.98.58,1.26.88,2.66.88,4.2s-.29,2.94-.88,4.2c-.59,1.26-1.41,2.25-2.47,2.98-1.06.73-2.27,1.09-3.62,1.09-1.15,0-2.16-.27-3.01-.81s-1.54-1.27-2.04-2.21c0-.02-.04-.09-.11-.21s-.19-.15-.35-.09c-.14.06-.21.15-.21.27,0,.14.05.29.15.46.28.57.42,1.12.42,1.64v.7h-3.88V0h3.88v6.45c0,.55-.14,1.11-.42,1.67ZM211.3,17.26c.69-.9,1.03-2.03,1.03-3.39s-.34-2.49-1.03-3.39c-.69-.9-1.68-1.35-2.97-1.35-.83,0-1.56.21-2.21.64-.65.43-1.15,1-1.5,1.73-.35.73-.53,1.52-.53,2.37s.18,1.64.53,2.37.85,1.31,1.5,1.73c.64.43,1.38.64,2.21.64,1.29,0,2.28-.45,2.97-1.35Z"/>
      <path class="cls-1" d="M233.31,14.84h-11.63c.14,1.22.59,2.17,1.33,2.86.75.69,1.73,1.03,2.94,1.03,1.64,0,2.71-.81,3.24-2.43h3.94c-.36,1.76-1.15,3.18-2.35,4.24s-2.82,1.6-4.86,1.6c-1.68,0-3.12-.35-4.33-1.06-1.21-.71-2.13-1.69-2.76-2.93-.63-1.25-.94-2.67-.94-4.27s.32-3.12.97-4.36c.65-1.25,1.57-2.21,2.77-2.89s2.61-1.02,4.22-1.02c1.31,0,2.54.28,3.68.84,1.14.56,2.07,1.44,2.79,2.65.72,1.21,1.07,2.73,1.07,4.58,0,.32-.03.72-.09,1.19ZM229.53,12.17c-.08-1.01-.42-1.83-1.03-2.46s-1.44-.94-2.51-.94c-2.3,0-3.69,1.14-4.15,3.41h7.69Z"/>
      <path class="cls-1" d="M239.22,0v21.9h-3.88V0h3.88Z"/>
      <path class="cls-1" d="M256.57,14.84h-11.63c.14,1.22.58,2.17,1.33,2.86.75.69,1.73,1.03,2.94,1.03,1.63,0,2.71-.81,3.24-2.43h3.94c-.36,1.76-1.14,3.18-2.35,4.24s-2.82,1.6-4.86,1.6c-1.68,0-3.12-.35-4.33-1.06-1.21-.71-2.13-1.69-2.76-2.93-.62-1.25-.94-2.67-.94-4.27s.32-3.12.97-4.36c.65-1.25,1.57-2.21,2.77-2.89,1.2-.68,2.61-1.02,4.22-1.02,1.31,0,2.54.28,3.68.84s2.07,1.44,2.79,2.65c.72,1.21,1.08,2.73,1.08,4.58,0,.32-.03.72-.09,1.19ZM252.78,12.17c-.08-1.01-.42-1.83-1.03-2.46s-1.44-.94-2.51-.94c-2.3,0-3.68,1.14-4.15,3.41h7.69Z"/>
      <path class="cls-1" d="M259.22,9.61c.65-1.26,1.6-2.24,2.83-2.95,1.23-.71,2.65-1.06,4.27-1.06,1.43,0,2.7.29,3.79.88,1.09.59,1.94,1.36,2.56,2.33.62.96.97,2,1.08,3.12h-3.82c-.12-.81-.49-1.48-1.12-2.01-.63-.53-1.46-.79-2.48-.79-1.31,0-2.34.44-3.09,1.31-.75.87-1.12,2.02-1.12,3.44s.37,2.56,1.12,3.44c.75.87,1.78,1.31,3.09,1.31,1.03,0,1.86-.26,2.48-.79.62-.53,1-1.2,1.12-2.01h3.82c-.1,1.12-.46,2.15-1.08,3.12-.62.96-1.46,1.74-2.54,2.33-1.08.59-2.35.88-3.8.88-1.59,0-3-.35-4.22-1.06-1.22-.71-2.17-1.69-2.85-2.95s-1.01-2.68-1.01-4.26.33-3,.98-4.26Z"/>
      <path class="cls-1" d="M275.67,0h3.88v3.89h-3.88V0ZM275.67,5.84h3.88v16.06h-3.88V5.84Z"/>
      <path class="cls-1" d="M304,7.09c.98.99,1.47,2.61,1.47,4.84v9.98h-3.88v-9.37c0-1.22-.2-2.09-.59-2.62s-1.05-.79-1.98-.79c-.87,0-1.58.43-2.15,1.29-.57.86-.85,1.99-.85,3.39v8.09h-3.88v-9c0-1.34-.15-2.3-.45-2.89-.3-.59-.92-.88-1.85-.88-.63,0-1.19.23-1.68.68-.49.46-.88,1.09-1.17,1.92-.28.82-.42,1.74-.42,2.75v7.42h-3.88V5.84h3.88v.91c0,.36-.04.67-.12.91-.08.24-.21.58-.39,1-.08.16-.12.29-.12.4,0,.12.07.21.21.27l.12.03c.12,0,.21-.06.27-.17.06-.11.09-.18.09-.2.43-1.07,1.01-1.91,1.76-2.51.75-.6,1.63-.9,2.66-.9s1.85.29,2.51.87c.67.58,1.11,1.34,1.33,2.3.06.2.21.3.46.3.2,0,.34-.09.42-.27.44-1.01,1.05-1.8,1.83-2.36.78-.56,1.64-.84,2.59-.84,1.55,0,2.82.5,3.8,1.49Z"/>
      <path class="cls-1" d="M322.82,14.84h-11.63c.14,1.22.58,2.17,1.33,2.86.75.69,1.73,1.03,2.94,1.03,1.63,0,2.71-.81,3.24-2.43h3.94c-.36,1.76-1.14,3.18-2.35,4.24s-2.82,1.6-4.86,1.6c-1.68,0-3.12-.35-4.33-1.06-1.21-.71-2.13-1.69-2.76-2.93-.62-1.25-.94-2.67-.94-4.27s.32-3.12.97-4.36c.65-1.25,1.57-2.21,2.77-2.89,1.2-.68,2.61-1.02,4.22-1.02,1.31,0,2.54.28,3.68.84s2.07,1.44,2.79,2.65c.72,1.21,1.08,2.73,1.08,4.58,0,.32-.03.72-.09,1.19ZM319.04,12.17c-.08-1.01-.42-1.83-1.03-2.46s-1.44-.94-2.51-.94c-2.3,0-3.68,1.14-4.15,3.41h7.69Z"/>
      <path class="cls-1" d="M338.32,7.33c1.03,1.16,1.54,2.85,1.54,5.08v9.49h-3.88v-8.15c0-1.74-.23-2.95-.7-3.62-.46-.67-1.22-1-2.27-1-.75,0-1.45.26-2.11.79s-1.19,1.27-1.59,2.22c-.4.95-.61,2.03-.61,3.22v6.54h-3.88V5.84h3.88v1c0,.47-.04.86-.12,1.19-.08.32-.2.66-.36,1-.1.24-.15.41-.15.49,0,.18.08.28.24.3h.09c.14,0,.26-.12.36-.37.45-.99,1.13-1.89,2.06-2.68.93-.79,2.02-1.19,3.27-1.19,1.78,0,3.18.58,4.21,1.73Z"/>
      <path class="cls-1" d="M347.86,9.25v7.33c0,.65.02,1.09.07,1.34.05.24.18.4.39.47.21.07.61.11,1.2.11h2.7v3.41h-3.51c-1.11,0-2.01-.15-2.7-.44-.69-.29-1.2-.8-1.53-1.51-.33-.71-.5-1.7-.5-2.98v-7.73h-2.91v-3.41h2.91V1.46h3.88v4.38h4.36v3.41h-4.36Z"/>
      <path class="cls-1" d="M365.67,6.69c1.21.73,2.14,1.72,2.79,2.98.64,1.26.97,2.66.97,4.2s-.32,2.94-.97,4.2c-.65,1.26-1.57,2.25-2.79,2.98-1.21.73-2.62,1.09-4.24,1.09s-3.03-.36-4.24-1.09-2.14-1.72-2.79-2.98c-.65-1.26-.97-2.66-.97-4.2s.32-2.94.97-4.2c.65-1.26,1.57-2.25,2.79-2.98s2.62-1.09,4.24-1.09,3.03.36,4.24,1.09ZM364.44,17.26c.74-.9,1.11-2.03,1.11-3.39s-.37-2.49-1.11-3.39c-.74-.9-1.74-1.35-3.01-1.35s-2.28.45-3.01,1.35c-.74.9-1.11,2.03-1.11,3.39s.37,2.49,1.11,3.39c.74.9,1.74,1.35,3.01,1.35s2.28-.45,3.01-1.35Z"/>
      <path class="cls-1" d="M375.53,18.34c.53.51,1.44.76,2.71.76,1.17,0,2.01-.17,2.53-.52.51-.34.77-.81.77-1.4,0-.39-.17-.68-.5-.88-.33-.2-.79-.36-1.38-.47-.59-.11-1.5-.24-2.76-.38-2.18-.26-3.65-.86-4.41-1.78-.76-.92-1.13-1.98-1.13-3.18,0-.89.26-1.71.79-2.45.53-.74,1.3-1.33,2.33-1.78,1.03-.45,2.27-.67,3.72-.67,2.04,0,3.64.48,4.81,1.44,1.17.96,1.81,2.2,1.91,3.73h-3.82c-.06-.61-.32-1.12-.77-1.52-.46-.41-1.2-.61-2.23-.61-1.92,0-2.88.55-2.88,1.64,0,.3.08.56.23.76.15.2.48.39.98.55.5.16,1.25.29,2.24.4,2.12.22,3.77.71,4.95,1.48,1.18.76,1.77,1.9,1.77,3.42,0,1.68-.63,2.98-1.89,3.89-1.26.91-3.06,1.37-5.41,1.37s-4.01-.5-5.25-1.51c-1.24-1-1.9-2.39-1.98-4.15h3.81c.02.73.3,1.35.83,1.86Z"/>
      <path class="cls-1" d="M.98,46.11c.65-1.26,1.6-2.24,2.83-2.95,1.23-.71,2.65-1.06,4.27-1.06,1.43,0,2.7.29,3.79.88,1.09.59,1.94,1.36,2.56,2.33.62.96.97,2,1.08,3.12h-3.82c-.12-.81-.49-1.48-1.12-2.01-.63-.53-1.46-.79-2.48-.79-1.31,0-2.34.44-3.09,1.31-.75.87-1.12,2.02-1.12,3.44s.37,2.56,1.12,3.44c.75.87,1.78,1.31,3.09,1.31,1.03,0,1.86-.26,2.48-.79.62-.53,1-1.2,1.12-2.01h3.82c-.1,1.12-.46,2.15-1.08,3.12-.62.96-1.46,1.74-2.54,2.33-1.08.59-2.35.88-3.8.88-1.59,0-3-.35-4.22-1.06-1.22-.71-2.17-1.69-2.85-2.95s-1.01-2.68-1.01-4.26.33-3,.98-4.26Z"/>
      <path class="cls-1" d="M29.31,43.19c1.21.73,2.14,1.72,2.79,2.98.64,1.26.97,2.66.97,4.2s-.32,2.94-.97,4.2c-.65,1.26-1.57,2.25-2.79,2.98-1.21.73-2.62,1.09-4.24,1.09s-3.03-.36-4.24-1.09-2.14-1.72-2.79-2.98c-.65-1.26-.97-2.66-.97-4.2s.32-2.94.97-4.2c.65-1.26,1.57-2.25,2.79-2.98s2.62-1.09,4.24-1.09,3.03.36,4.24,1.09ZM28.08,53.75c.74-.9,1.11-2.03,1.11-3.39s-.37-2.49-1.11-3.39c-.74-.9-1.74-1.35-3.01-1.35s-2.28.45-3.01,1.35c-.74.9-1.11,2.03-1.11,3.39s.37,2.49,1.11,3.39c.74.9,1.74,1.35,3.01,1.35s2.28-.45,3.01-1.35Z"/>
      <path class="cls-1" d="M56.31,43.58c.98.99,1.47,2.61,1.47,4.84v9.98h-3.88v-9.37c0-1.22-.2-2.09-.59-2.62s-1.05-.79-1.98-.79c-.87,0-1.58.43-2.15,1.29-.57.86-.85,1.99-.85,3.39v8.09h-3.88v-9c0-1.34-.15-2.3-.45-2.89-.3-.59-.92-.88-1.85-.88-.63,0-1.19.23-1.68.68-.49.46-.88,1.09-1.17,1.92-.28.82-.42,1.74-.42,2.75v7.42h-3.88v-16.06h3.88v.91c0,.36-.04.67-.12.91-.08.24-.21.58-.39,1-.08.16-.12.29-.12.4,0,.12.07.21.21.27l.12.03c.12,0,.21-.06.27-.17.06-.11.09-.18.09-.2.43-1.07,1.01-1.91,1.76-2.51.75-.6,1.63-.9,2.66-.9s1.85.29,2.51.87c.67.58,1.11,1.34,1.33,2.3.06.2.21.3.46.3.2,0,.34-.09.42-.27.44-1.01,1.05-1.8,1.83-2.36.78-.56,1.64-.84,2.59-.84,1.55,0,2.82.5,3.8,1.49Z"/>
      <path class="cls-1" d="M73.34,44.62c-.02.06-.05.15-.11.27s-.08.22-.08.3c0,.1.05.18.15.24l.12.03c.14,0,.24-.06.3-.18s.1-.19.12-.21c.53-.91,1.21-1.64,2.04-2.17s1.84-.81,3.01-.81c1.35,0,2.56.36,3.62,1.09,1.06.73,1.88,1.72,2.47,2.98.59,1.26.88,2.66.88,4.2s-.29,2.94-.88,4.2c-.59,1.26-1.41,2.25-2.47,2.98-1.06.73-2.27,1.09-3.62,1.09-1.15,0-2.15-.27-3.01-.81-.86-.54-1.54-1.27-2.04-2.21,0-.02-.04-.09-.11-.21-.07-.12-.19-.15-.35-.09-.14.06-.21.15-.21.27,0,.14.05.29.15.46.28.57.42,1.12.42,1.64v.7h-3.88v-21.9h3.88v6.45c0,.55-.14,1.11-.42,1.67ZM80.97,53.75c.69-.9,1.03-2.03,1.03-3.39s-.34-2.49-1.03-3.39c-.69-.9-1.68-1.35-2.97-1.35-.83,0-1.56.21-2.21.64s-1.15,1-1.5,1.73c-.35.73-.53,1.52-.53,2.37s.18,1.64.53,2.37c.35.73.85,1.31,1.5,1.73s1.38.64,2.21.64c1.29,0,2.28-.45,2.97-1.35Z"/>
      <path class="cls-1" d="M88.05,36.5h3.88v3.89h-3.88v-3.89ZM88.05,42.33h3.88v16.06h-3.88v-16.06Z"/>
      <path class="cls-1" d="M94.85,46.11c.66-1.26,1.6-2.24,2.83-2.95,1.23-.71,2.65-1.06,4.27-1.06,1.43,0,2.7.29,3.79.88,1.09.59,1.94,1.36,2.56,2.33.62.96.97,2,1.07,3.12h-3.81c-.12-.81-.5-1.48-1.12-2.01s-1.45-.79-2.48-.79c-1.31,0-2.34.44-3.09,1.31-.75.87-1.12,2.02-1.12,3.44s.37,2.56,1.12,3.44c.75.87,1.78,1.31,3.09,1.31,1.03,0,1.86-.26,2.48-.79s1-1.2,1.12-2.01h3.81c-.1,1.12-.46,2.15-1.07,3.12-.62.96-1.46,1.74-2.54,2.33-1.08.59-2.35.88-3.8.88-1.6,0-3-.35-4.22-1.06-1.22-.71-2.17-1.69-2.85-2.95-.68-1.26-1.02-2.68-1.02-4.26s.33-3,.98-4.26Z"/>
      <path class="cls-1" d="M111.31,36.5h3.88v3.89h-3.88v-3.89ZM111.31,42.33h3.88v16.06h-3.88v-16.06Z"/>
      <path class="cls-1" d="M118.11,46.11c.65-1.26,1.6-2.24,2.83-2.95,1.23-.71,2.65-1.06,4.27-1.06,1.43,0,2.7.29,3.79.88,1.09.59,1.94,1.36,2.56,2.33.62.96.97,2,1.08,3.12h-3.82c-.12-.81-.49-1.48-1.12-2.01-.63-.53-1.46-.79-2.48-.79-1.31,0-2.34.44-3.09,1.31-.75.87-1.12,2.02-1.12,3.44s.37,2.56,1.12,3.44c.75.87,1.78,1.31,3.09,1.31,1.03,0,1.86-.26,2.48-.79.62-.53,1-1.2,1.12-2.01h3.82c-.1,1.12-.46,2.15-1.08,3.12-.62.96-1.46,1.74-2.54,2.33-1.08.59-2.35.88-3.8.88-1.59,0-3-.35-4.22-1.06-1.22-.71-2.17-1.69-2.85-2.95s-1.01-2.68-1.01-4.26.33-3,.98-4.26Z"/>
      <path class="cls-1" d="M138.44,36.5v21.9h-3.88v-21.9h3.88Z"/>
      <path class="cls-1" d="M155.79,51.34h-11.63c.14,1.22.58,2.17,1.33,2.86.75.69,1.73,1.03,2.94,1.03,1.63,0,2.71-.81,3.24-2.43h3.94c-.36,1.76-1.14,3.18-2.35,4.24s-2.82,1.6-4.86,1.6c-1.68,0-3.12-.35-4.33-1.06-1.21-.71-2.13-1.69-2.76-2.93-.62-1.25-.94-2.67-.94-4.27s.32-3.12.97-4.36c.65-1.25,1.57-2.21,2.77-2.89,1.2-.68,2.61-1.02,4.22-1.02,1.31,0,2.54.28,3.68.84s2.07,1.44,2.79,2.65c.72,1.21,1.08,2.73,1.08,4.58,0,.32-.03.72-.09,1.19ZM152.01,48.66c-.08-1.01-.42-1.83-1.03-2.46s-1.44-.94-2.51-.94c-2.3,0-3.68,1.14-4.15,3.41h7.69Z"/>
      <path class="cls-1" d="M162.91,45.74v7.33c0,.65.02,1.09.07,1.34.05.24.18.4.39.47.21.07.61.11,1.2.11h2.7v3.41h-3.51c-1.11,0-2.01-.15-2.7-.44-.69-.29-1.2-.8-1.53-1.51-.33-.71-.5-1.7-.5-2.98v-7.73h-2.91v-3.41h2.91v-4.38h3.88v4.38h4.36v3.41h-4.36Z"/>
      <path class="cls-1" d="M170.55,50.29c1.06-.8,2.47-1.25,4.22-1.35l1.54-.06c1.37-.04,2.35-.13,2.94-.27.58-.14.87-.49.85-1.03-.02-.69-.25-1.25-.7-1.67s-1.28-.64-2.51-.64-2.14.22-2.66.65-.85,1.03-.97,1.78h-3.82c.26-1.91,1.1-3.32,2.51-4.23,1.41-.91,3.1-1.37,5.06-1.37,2.14,0,3.84.53,5.09,1.58s1.88,3,1.88,5.84v8.88h-3.88v-1.13c0-.61.15-1.2.45-1.76.08-.2.12-.35.12-.46,0-.12-.05-.2-.15-.24l-.12-.03c-.12,0-.21.06-.27.17s-.09.18-.09.2c-.95,2.33-2.79,3.5-5.51,3.5-.99,0-1.91-.2-2.77-.61-.86-.41-1.54-.96-2.04-1.67-.51-.71-.76-1.5-.76-2.37,0-1.66.53-2.89,1.59-3.7ZM178.52,51.05c-.66.17-1.68.33-3.07.47-.87.1-1.52.33-1.95.68-.43.35-.65.88-.65,1.57,0,.59.23,1.06.68,1.43.45.36,1.04.55,1.77.55.26,0,.46,0,.61-.03,1.19-.16,2.18-.68,2.98-1.55.8-.87,1.21-2.22,1.23-4.04-.4.45-.93.76-1.59.93ZM177.69,35.77h3.39l-3.39,4.62h-2.42l2.42-4.62Z"/>
      <path class="cls-1" d="M190.49,45.77c.08,0,.15-.04.21-.11.06-.07.1-.14.12-.2.36-.83.74-1.48,1.12-1.95.38-.47.94-.82,1.66-1.06.73-.24,1.72-.36,2.97-.36v3.95c-.24-.02-.58-.03-1-.03-1.8,0-3.05.42-3.75,1.26-.71.84-1.06,2.23-1.06,4.15v6.96h-3.88v-16.06h3.88v.88c0,.63-.15,1.25-.46,1.85-.08.16-.12.29-.12.4,0,.16.09.26.27.3h.03Z"/>
      <path class="cls-1" d="M198.76,36.5h3.88v3.89h-3.88v-3.89ZM198.76,42.33h3.88v16.06h-3.88v-16.06Z"/>
      <path class="cls-1" d="M216.81,43.19c1.21.73,2.14,1.72,2.79,2.98.65,1.26.97,2.66.97,4.2s-.32,2.94-.97,4.2c-.65,1.26-1.57,2.25-2.79,2.98s-2.62,1.09-4.24,1.09-3.03-.36-4.24-1.09-2.14-1.72-2.79-2.98c-.64-1.26-.97-2.66-.97-4.2s.32-2.94.97-4.2c.65-1.26,1.58-2.25,2.79-2.98s2.62-1.09,4.24-1.09,3.03.36,4.24,1.09ZM215.58,53.75c.74-.9,1.11-2.03,1.11-3.39s-.37-2.49-1.11-3.39c-.74-.9-1.74-1.35-3.01-1.35s-2.28.45-3.01,1.35c-.74.9-1.11,2.03-1.11,3.39s.37,2.49,1.11,3.39c.74.9,1.74,1.35,3.01,1.35s2.28-.45,3.01-1.35Z"/>
      <path class="cls-1" d="M226.67,54.83c.54.51,1.44.76,2.71.76,1.17,0,2.01-.17,2.53-.52.52-.34.77-.81.77-1.4,0-.39-.17-.68-.5-.88-.33-.2-.79-.36-1.38-.47-.58-.11-1.5-.24-2.75-.38-2.18-.26-3.65-.86-4.41-1.78-.76-.92-1.14-1.98-1.14-3.18,0-.89.26-1.71.79-2.45.53-.74,1.3-1.33,2.33-1.78,1.03-.45,2.27-.67,3.72-.67,2.04,0,3.64.48,4.81,1.44,1.17.96,1.81,2.2,1.91,3.73h-3.81c-.06-.61-.32-1.12-.77-1.52-.45-.41-1.2-.61-2.22-.61-1.92,0-2.88.55-2.88,1.64,0,.3.08.56.23.76.15.2.48.39.98.55.5.16,1.25.29,2.24.4,2.12.22,3.77.71,4.95,1.48,1.18.76,1.77,1.9,1.77,3.42,0,1.68-.63,2.98-1.89,3.89-1.26.91-3.06,1.37-5.4,1.37s-4.01-.5-5.25-1.51c-1.24-1-1.9-2.39-1.98-4.15h3.82c.02.73.3,1.35.83,1.86Z"/>
      <path class="cls-1" d="M262.62,51.34h-11.63c.14,1.22.59,2.17,1.33,2.86.75.69,1.73,1.03,2.94,1.03,1.64,0,2.71-.81,3.24-2.43h3.94c-.36,1.76-1.15,3.18-2.35,4.24s-2.82,1.6-4.86,1.6c-1.68,0-3.12-.35-4.33-1.06-1.21-.71-2.13-1.69-2.76-2.93-.63-1.25-.94-2.67-.94-4.27s.32-3.12.97-4.36c.65-1.25,1.57-2.21,2.77-2.89s2.61-1.02,4.22-1.02c1.31,0,2.54.28,3.68.84,1.14.56,2.07,1.44,2.79,2.65.72,1.21,1.07,2.73,1.07,4.58,0,.32-.03.72-.09,1.19ZM258.84,48.66c-.08-1.01-.42-1.83-1.03-2.46s-1.44-.94-2.51-.94c-2.3,0-3.69,1.14-4.15,3.41h7.69Z"/>
      <path class="cls-1" d="M285.96,43.58c.98.99,1.47,2.61,1.47,4.84v9.98h-3.88v-9.37c0-1.22-.2-2.09-.59-2.62-.39-.53-1.05-.79-1.98-.79-.87,0-1.59.43-2.15,1.29-.56.86-.85,1.99-.85,3.39v8.09h-3.88v-9c0-1.34-.15-2.3-.46-2.89-.3-.59-.92-.88-1.85-.88-.62,0-1.19.23-1.68.68-.5.46-.88,1.09-1.17,1.92-.28.82-.42,1.74-.42,2.75v7.42h-3.88v-16.06h3.88v.91c0,.36-.04.67-.12.91-.08.24-.21.58-.39,1-.08.16-.12.29-.12.4,0,.12.07.21.21.27l.12.03c.12,0,.21-.06.27-.17.06-.11.09-.18.09-.2.42-1.07,1.01-1.91,1.76-2.51.75-.6,1.63-.9,2.66-.9s1.85.29,2.51.87c.67.58,1.11,1.34,1.33,2.3.06.2.21.3.46.3.2,0,.34-.09.42-.27.44-1.01,1.05-1.8,1.83-2.36s1.64-.84,2.59-.84c1.55,0,2.82.5,3.8,1.49Z"/>
      <path class="cls-1" d="M308.2,36.98c2.85,0,4.94.59,6.28,1.78,1.34,1.19,2.01,2.76,2.01,4.73,0,1.28-.46,2.42-1.39,3.42-.93,1-2.2,1.64-3.81,1.9-.22.04-.33.17-.33.4,0,.26.11.4.33.4.93.04,1.67.22,2.22.53.56.31.96.67,1.21,1.06.25.4.48.89.68,1.47l2.06,5.72h-4.79l-1.15-4.35c-.22-.87-.47-1.54-.76-2.01-.28-.47-.72-.82-1.32-1.06-.6-.24-1.44-.36-2.53-.36h-3.27v7.79h-4.12v-21.41h8.66ZM311.04,46.23c.89-.61,1.33-1.38,1.33-2.31,0-1.05-.33-1.88-.98-2.46-.66-.59-1.57-.88-2.74-.88h-5v6.57h4.15c1.27,0,2.35-.3,3.24-.91Z"/>
      <path class="cls-1" d="M333.84,51.34h-11.63c.14,1.22.58,2.17,1.33,2.86.75.69,1.73,1.03,2.94,1.03,1.63,0,2.71-.81,3.24-2.43h3.94c-.36,1.76-1.14,3.18-2.35,4.24s-2.82,1.6-4.86,1.6c-1.68,0-3.12-.35-4.33-1.06-1.21-.71-2.13-1.69-2.76-2.93-.62-1.25-.94-2.67-.94-4.27s.32-3.12.97-4.36c.65-1.25,1.57-2.21,2.77-2.89,1.2-.68,2.61-1.02,4.22-1.02,1.31,0,2.54.28,3.68.84s2.07,1.44,2.79,2.65c.72,1.21,1.08,2.73,1.08,4.58,0,.32-.03.72-.09,1.19ZM330.06,48.66c-.08-1.01-.42-1.83-1.03-2.46s-1.44-.94-2.51-.94c-2.3,0-3.68,1.14-4.15,3.41h7.69Z"/>
      <path class="cls-1" d="M336.49,46.11c.65-1.26,1.6-2.24,2.83-2.95,1.23-.71,2.65-1.06,4.27-1.06,1.43,0,2.7.29,3.79.88,1.09.59,1.94,1.36,2.56,2.33.62.96.97,2,1.08,3.12h-3.82c-.12-.81-.49-1.48-1.12-2.01-.63-.53-1.46-.79-2.48-.79-1.31,0-2.34.44-3.09,1.31-.75.87-1.12,2.02-1.12,3.44s.37,2.56,1.12,3.44c.75.87,1.78,1.31,3.09,1.31,1.03,0,1.86-.26,2.48-.79.62-.53,1-1.2,1.12-2.01h3.82c-.1,1.12-.46,2.15-1.08,3.12-.62.96-1.46,1.74-2.54,2.33-1.08.59-2.35.88-3.8.88-1.59,0-3-.35-4.22-1.06-1.22-.71-2.17-1.69-2.85-2.95s-1.01-2.68-1.01-4.26.33-3,.98-4.26Z"/>
      <path class="cls-1" d="M352.95,36.5h3.88v3.89h-3.88v-3.89ZM352.95,42.33h3.88v16.06h-3.88v-16.06Z"/>
      <path class="cls-1" d="M365.29,40.01c-.21.07-.34.22-.39.46-.05.23-.08.67-.08,1.32v.55h4.36v3.41h-4.36v12.65h-3.88v-12.65h-2.42v-3.41h2.42v-.91c0-1.28.17-2.27.5-2.98.33-.71.84-1.21,1.53-1.51.69-.29,1.59-.44,2.7-.44h3.51v3.41h-2.7c-.59,0-.98.04-1.2.11Z"/>
      <path class="cls-1" d="M385.32,51.34h-11.63c.14,1.22.59,2.17,1.33,2.86.75.69,1.73,1.03,2.94,1.03,1.64,0,2.71-.81,3.24-2.43h3.94c-.36,1.76-1.15,3.18-2.35,4.24s-2.82,1.6-4.86,1.6c-1.68,0-3.12-.35-4.33-1.06-1.21-.71-2.13-1.69-2.76-2.93-.63-1.25-.94-2.67-.94-4.27s.32-3.12.97-4.36c.65-1.25,1.57-2.21,2.77-2.89s2.61-1.02,4.22-1.02c1.31,0,2.54.28,3.68.84,1.14.56,2.07,1.44,2.79,2.65.72,1.21,1.07,2.73,1.07,4.58,0,.32-.03.72-.09,1.19ZM381.54,48.66c-.08-1.01-.42-1.83-1.03-2.46s-1.44-.94-2.51-.94c-2.3,0-3.69,1.14-4.15,3.41h7.69Z"/>
    </g>
  </g>
</svg>