<?xml version="1.0" encoding="UTF-8"?>
<svg id="Camada_2" data-name="Camada 2" xmlns="http://www.w3.org/2000/svg" viewBox="0 0 145.14 228.92">
  <defs>
    <style>
      .cls-1 {
        fill: #f98392;
      }
    </style>
  </defs>
  <g id="Camada_1-2" data-name="Camada 1">
    <g>
      <path class="cls-1" d="M2.78,23.99c1.85-1.39,4.31-2.18,7.38-2.35l2.7-.11c2.4-.07,4.11-.23,5.13-.48,1.02-.25,1.52-.85,1.48-1.8-.04-1.2-.44-2.17-1.22-2.91-.78-.74-2.24-1.11-4.39-1.11s-3.74.38-4.66,1.14c-.92.76-1.48,1.79-1.69,3.09H.85c.46-3.31,1.92-5.77,4.39-7.35,2.47-1.59,5.41-2.38,8.83-2.38,3.74,0,6.7.92,8.89,2.75,2.19,1.83,3.28,5.22,3.28,10.16v15.44h-6.77v-1.96c0-1.06.27-2.08.79-3.07.14-.35.21-.62.21-.79,0-.21-.09-.35-.26-.42l-.21-.05c-.21,0-.37.1-.48.29-.11.19-.16.31-.16.34-1.66,4.06-4.87,6.08-9.63,6.08-1.73,0-3.34-.35-4.84-1.06-1.5-.71-2.69-1.67-3.57-2.91-.88-1.23-1.32-2.61-1.32-4.13,0-2.89.92-5.03,2.78-6.43ZM16.69,25.31c-1.15.3-2.94.57-5.37.82-1.52.18-2.65.57-3.41,1.19-.76.62-1.14,1.53-1.14,2.72,0,1.02.4,1.85,1.19,2.49s1.83.95,3.09.95c.46,0,.81-.02,1.06-.05,2.08-.28,3.82-1.18,5.21-2.7,1.39-1.52,2.11-3.86,2.14-7.03-.71.78-1.63,1.31-2.78,1.61Z"/>
      <path class="cls-1" d="M57.97,48.24h-6.77v-11.37c0-.92.25-1.87.74-2.86.18-.28.26-.55.26-.79,0-.21-.12-.37-.37-.48l-.16-.05c-.21,0-.36.09-.45.26-.09.18-.15.28-.18.32-1.09,1.62-2.35,2.9-3.76,3.83-1.41.93-3.1,1.4-5.08,1.4-2.36,0-4.47-.63-6.32-1.9s-3.29-3-4.31-5.18c-1.02-2.19-1.53-4.62-1.53-7.3s.51-5.11,1.53-7.3c1.02-2.19,2.46-3.91,4.31-5.18s3.96-1.9,6.32-1.9c2.08,0,3.87.47,5.37,1.4,1.5.93,2.65,2.19,3.46,3.78.28.6.6.81.95.63.18-.11.26-.26.26-.48s-.11-.53-.32-.95c-.49-.99-.74-1.96-.74-2.91v-1.06h6.77v38.08ZM47.66,31.26c1.13-.74,2-1.75,2.62-3.01.62-1.27.93-2.65.93-4.13s-.31-2.86-.93-4.13c-.62-1.27-1.49-2.27-2.62-3.01-1.13-.74-2.42-1.11-3.86-1.11-2.26,0-3.99.79-5.18,2.35-1.2,1.57-1.8,3.54-1.8,5.9s.6,4.33,1.8,5.9c1.2,1.57,2.93,2.35,5.18,2.35,1.45,0,2.73-.37,3.86-1.11Z"/>
      <path class="cls-1" d="M65.32,35.49c-1.8-2.01-2.7-4.95-2.7-8.83V10.16h6.77v14.18c0,3.03.41,5.13,1.22,6.29.81,1.16,2.13,1.75,3.97,1.75,1.3,0,2.53-.46,3.68-1.38,1.14-.92,2.07-2.2,2.78-3.86.71-1.66,1.06-3.53,1.06-5.61v-11.37h6.77v27.93h-6.77v-1.75c0-.77.07-1.44.21-1.98.14-.55.35-1.15.63-1.82.18-.46.27-.74.27-.85,0-.32-.14-.49-.42-.53h-.16c-.25,0-.46.21-.63.63-.88,1.76-2.11,3.32-3.68,4.68-1.57,1.36-3.45,2.04-5.63,2.04-3.1,0-5.55-1.01-7.35-3.02Z"/>
      <path class="cls-1" d="M94.36,0h6.77v6.77h-6.77V0ZM94.36,10.16h6.77v27.93h-6.77V10.16Z"/>
      <path class="cls-1" d="M1.72,80.19c1.15-2.19,2.79-3.9,4.95-5.13,2.15-1.23,4.64-1.85,7.46-1.85,2.5,0,4.71.51,6.61,1.53,1.9,1.02,3.39,2.37,4.47,4.05,1.08,1.68,1.7,3.48,1.88,5.42h-6.66c-.21-1.41-.87-2.57-1.96-3.49-1.09-.92-2.54-1.38-4.34-1.38-2.29,0-4.09.76-5.39,2.27-1.3,1.52-1.96,3.51-1.96,5.98s.65,4.46,1.96,5.98c1.3,1.52,3.1,2.27,5.39,2.27,1.8,0,3.24-.46,4.34-1.38,1.09-.92,1.75-2.08,1.96-3.49h6.66c-.18,1.94-.8,3.75-1.88,5.42-1.08,1.68-2.56,3.02-4.44,4.05-1.89,1.02-4.1,1.53-6.64,1.53-2.79,0-5.25-.62-7.38-1.85-2.13-1.23-3.79-2.94-4.97-5.13-1.18-2.19-1.77-4.65-1.77-7.41s.57-5.22,1.72-7.4Z"/>
      <path class="cls-1" d="M32.4,87.46c1.85-1.39,4.31-2.18,7.38-2.35l2.7-.11c2.4-.07,4.11-.23,5.13-.48,1.02-.25,1.52-.85,1.48-1.8-.04-1.2-.44-2.17-1.22-2.91-.78-.74-2.24-1.11-4.39-1.11s-3.74.38-4.65,1.14c-.92.76-1.48,1.79-1.69,3.09h-6.66c.46-3.31,1.92-5.77,4.39-7.35,2.47-1.59,5.41-2.38,8.83-2.38,3.74,0,6.7.92,8.89,2.75,2.19,1.83,3.28,5.22,3.28,10.16v15.44h-6.77v-1.96c0-1.06.26-2.08.79-3.07.14-.35.21-.62.21-.79,0-.21-.09-.35-.26-.42l-.21-.05c-.21,0-.37.1-.48.29-.11.19-.16.31-.16.34-1.66,4.06-4.87,6.08-9.63,6.08-1.73,0-3.34-.35-4.84-1.06-1.5-.71-2.69-1.67-3.57-2.91-.88-1.23-1.32-2.61-1.32-4.13,0-2.89.92-5.03,2.78-6.43ZM46.31,88.78c-1.15.3-2.94.57-5.37.82-1.52.18-2.65.57-3.41,1.19-.76.62-1.14,1.53-1.14,2.72,0,1.02.4,1.85,1.19,2.49.79.63,1.83.95,3.09.95.46,0,.81-.02,1.06-.05,2.08-.28,3.82-1.18,5.21-2.7,1.39-1.52,2.11-3.86,2.14-7.03-.71.78-1.63,1.31-2.78,1.61Z"/>
      <path class="cls-1" d="M67.38,77.59c-.04.11-.1.26-.18.48-.09.21-.13.39-.13.53,0,.18.09.32.26.42l.21.05c.25,0,.42-.11.53-.32.11-.21.18-.33.21-.37.92-1.59,2.11-2.85,3.57-3.78,1.46-.93,3.22-1.4,5.26-1.4,2.36,0,4.47.63,6.32,1.9,1.85,1.27,3.29,3,4.31,5.18,1.02,2.19,1.53,4.62,1.53,7.3s-.51,5.11-1.53,7.3c-1.02,2.19-2.46,3.91-4.31,5.18-1.85,1.27-3.96,1.9-6.32,1.9-2.01,0-3.76-.47-5.26-1.4-1.5-.93-2.69-2.21-3.57-3.83,0-.03-.06-.16-.19-.37-.12-.21-.33-.26-.61-.16-.25.11-.37.26-.37.48,0,.25.09.51.26.79.49.99.74,1.94.74,2.86v1.22h-6.77v-38.08h6.77v11.21c0,.95-.25,1.92-.74,2.91ZM80.71,93.49c1.2-1.57,1.8-3.54,1.8-5.9s-.6-4.33-1.8-5.9c-1.2-1.57-2.93-2.35-5.18-2.35-1.45,0-2.73.37-3.86,1.11-1.13.74-2,1.75-2.62,3.01-.62,1.27-.92,2.64-.92,4.13s.31,2.86.92,4.13c.62,1.27,1.49,2.27,2.62,3.01,1.13.74,2.42,1.11,3.86,1.11,2.26,0,3.98-.78,5.18-2.35Z"/>
      <path class="cls-1" d="M119.17,89.28h-20.31c.25,2.12,1.02,3.77,2.33,4.97,1.3,1.2,3.01,1.8,5.13,1.8,2.86,0,4.74-1.41,5.66-4.23h6.88c-.63,3.07-2,5.53-4.1,7.38-2.1,1.85-4.93,2.78-8.49,2.78-2.93,0-5.45-.62-7.56-1.85-2.12-1.23-3.72-2.94-4.81-5.1-1.09-2.17-1.64-4.65-1.64-7.43s.56-5.42,1.69-7.59c1.13-2.17,2.74-3.84,4.84-5.02,2.1-1.18,4.56-1.77,7.38-1.77,2.29,0,4.43.49,6.43,1.45,1.99.97,3.61,2.5,4.87,4.6,1.25,2.1,1.88,4.75,1.88,7.96,0,.56-.05,1.25-.16,2.06ZM112.55,84.63c-.14-1.76-.74-3.19-1.8-4.28-1.06-1.09-2.52-1.64-4.39-1.64-4.02,0-6.44,1.98-7.25,5.92h13.43Z"/>
      <path class="cls-1" d="M38.9,139.27c1.71,1.73,2.57,4.53,2.57,8.41v17.35h-6.77v-16.29c0-2.12-.34-3.63-1.03-4.55-.69-.92-1.84-1.38-3.46-1.38-1.52,0-2.77.75-3.76,2.25-.99,1.5-1.48,3.46-1.48,5.9v14.07h-6.77v-15.66c0-2.33-.26-4-.79-5.02-.53-1.02-1.6-1.53-3.23-1.53-1.09,0-2.07.4-2.94,1.19-.86.79-1.54,1.9-2.04,3.33-.49,1.43-.74,3.02-.74,4.79v12.91H1.69v-27.93h6.77v1.59c0,.63-.07,1.16-.21,1.59-.14.42-.37,1-.69,1.75-.14.28-.21.51-.21.69,0,.21.12.37.37.48l.21.05c.21,0,.37-.1.48-.29.11-.19.16-.31.16-.34.74-1.87,1.76-3.32,3.07-4.36,1.3-1.04,2.86-1.56,4.66-1.56s3.23.5,4.39,1.51c1.16,1.01,1.94,2.34,2.33,3.99.11.35.37.53.79.53.35,0,.6-.16.74-.48.78-1.76,1.84-3.13,3.2-4.1,1.36-.97,2.86-1.45,4.52-1.45,2.71,0,4.93.86,6.64,2.59Z"/>
      <path class="cls-1" d="M46.12,126.94h6.77v6.77h-6.77v-6.77ZM46.12,137.1h6.77v27.93h-6.77v-27.93Z"/>
      <path class="cls-1" d="M81.93,139.69c1.8,2.01,2.7,4.95,2.7,8.83v16.5h-6.77v-14.18c0-3.03-.41-5.13-1.22-6.29-.81-1.16-2.13-1.75-3.97-1.75-1.31,0-2.53.46-3.68,1.38-1.15.92-2.07,2.2-2.78,3.86-.71,1.66-1.06,3.53-1.06,5.61v11.37h-6.77v-27.93h6.77v1.75c0,.81-.07,1.5-.21,2.06-.14.56-.35,1.15-.63,1.75-.18.42-.26.71-.26.85,0,.32.14.49.42.53h.16c.25,0,.46-.21.63-.63.78-1.73,1.97-3.28,3.6-4.65,1.62-1.38,3.53-2.06,5.71-2.06,3.1,0,5.55,1,7.35,3.02Z"/>
      <path class="cls-1" d="M112.82,139.69c1.8,2.01,2.7,4.95,2.7,8.83v16.5h-6.77v-14.18c0-3.03-.41-5.13-1.22-6.29-.81-1.16-2.13-1.75-3.97-1.75-1.3,0-2.53.46-3.68,1.38-1.15.92-2.07,2.2-2.78,3.86-.71,1.66-1.06,3.53-1.06,5.61v11.37h-6.77v-38.08h6.77v11.9c0,.81-.07,1.5-.21,2.06-.14.56-.35,1.15-.63,1.75-.18.42-.26.71-.26.85,0,.32.14.49.42.53h.16c.25,0,.46-.21.63-.63.78-1.73,1.97-3.28,3.6-4.65,1.62-1.38,3.53-2.06,5.71-2.06,3.1,0,5.55,1,7.35,3.02Z"/>
      <path class="cls-1" d="M121.68,150.93c1.85-1.39,4.31-2.18,7.38-2.35l2.7-.11c2.4-.07,4.11-.23,5.13-.48,1.02-.25,1.52-.85,1.48-1.8-.04-1.2-.44-2.17-1.22-2.91-.78-.74-2.24-1.11-4.39-1.11s-3.74.38-4.66,1.14c-.92.76-1.48,1.79-1.69,3.09h-6.67c.46-3.31,1.92-5.77,4.39-7.35s5.41-2.38,8.83-2.38c3.74,0,6.7.92,8.89,2.75,2.19,1.83,3.28,5.22,3.28,10.16v15.44h-6.77v-1.96c0-1.06.26-2.08.79-3.07.14-.35.21-.62.21-.79,0-.21-.09-.35-.26-.42l-.21-.05c-.21,0-.37.1-.48.29-.11.19-.16.31-.16.34-1.66,4.06-4.87,6.08-9.63,6.08-1.73,0-3.34-.35-4.84-1.06-1.5-.71-2.69-1.67-3.57-2.91-.88-1.23-1.32-2.61-1.32-4.13,0-2.89.93-5.03,2.78-6.43ZM135.59,152.25c-1.15.3-2.94.57-5.37.82-1.52.18-2.65.57-3.41,1.19-.76.62-1.14,1.53-1.14,2.72,0,1.02.4,1.85,1.19,2.49s1.82.95,3.09.95c.46,0,.81-.02,1.06-.05,2.08-.28,3.82-1.18,5.21-2.7,1.39-1.52,2.11-3.86,2.14-7.03-.71.78-1.63,1.31-2.78,1.61Z"/>
      <path class="cls-1" d="M7.72,204.54c-.04.11-.1.26-.18.48-.09.21-.13.39-.13.53,0,.18.09.32.26.42l.21.05c.25,0,.42-.11.53-.32.11-.21.18-.33.21-.37.92-1.59,2.11-2.85,3.57-3.78,1.46-.93,3.22-1.4,5.26-1.4,2.36,0,4.47.63,6.32,1.9,1.85,1.27,3.29,3,4.31,5.18,1.02,2.19,1.53,4.62,1.53,7.3s-.51,5.11-1.53,7.3c-1.02,2.19-2.46,3.91-4.31,5.18-1.85,1.27-3.96,1.9-6.32,1.9-2.01,0-3.76-.47-5.26-1.4-1.5-.93-2.69-2.21-3.57-3.83,0-.03-.06-.16-.19-.37-.12-.21-.33-.26-.61-.16-.25.11-.37.26-.37.48,0,.25.09.51.26.79.49.99.74,1.94.74,2.86v1.22H1.69v-38.08h6.77v11.21c0,.95-.25,1.92-.74,2.91ZM21.05,220.43c1.2-1.57,1.8-3.54,1.8-5.9s-.6-4.33-1.8-5.9c-1.2-1.57-2.93-2.35-5.18-2.35-1.45,0-2.73.37-3.86,1.11-1.13.74-2,1.75-2.62,3.01s-.92,2.64-.92,4.13.31,2.86.92,4.13c.62,1.27,1.49,2.27,2.62,3.01,1.13.74,2.41,1.11,3.86,1.11,2.26,0,3.98-.78,5.18-2.35Z"/>
      <path class="cls-1" d="M33.43,190.41h6.77v6.77h-6.77v-6.77ZM33.43,200.57h6.77v27.93h-6.77v-27.93Z"/>
      <path class="cls-1" d="M63.47,228.5l-8.57-11.69-2.43,2.43v9.26h-6.77v-38.08h6.77v16.66c0,1.02-.11,1.82-.32,2.41-.21.58-.56,1.17-1.06,1.77-.14.21-.21.37-.21.48,0,.18.07.32.21.42.11.11.23.16.37.16s.32-.11.53-.32l10.63-11.42h8.46l-11.64,11.69,12.48,16.24h-8.46Z"/>
      <path class="cls-1" d="M98.01,216.23h-20.31c.25,2.12,1.02,3.77,2.33,4.97,1.3,1.2,3.01,1.8,5.13,1.8,2.86,0,4.74-1.41,5.66-4.23h6.88c-.63,3.07-2,5.53-4.1,7.38-2.1,1.85-4.93,2.78-8.49,2.78-2.93,0-5.45-.62-7.56-1.85-2.12-1.23-3.72-2.94-4.81-5.1s-1.64-4.65-1.64-7.43.56-5.42,1.69-7.59c1.13-2.17,2.74-3.84,4.84-5.02,2.1-1.18,4.56-1.77,7.38-1.77,2.29,0,4.43.49,6.43,1.45,1.99.97,3.61,2.5,4.87,4.6,1.25,2.1,1.88,4.75,1.88,7.96,0,.56-.05,1.25-.16,2.06ZM91.4,211.57c-.14-1.76-.74-3.19-1.8-4.28-1.06-1.09-2.52-1.64-4.39-1.64-4.02,0-6.44,1.98-7.25,5.92h13.43Z"/>
      <path class="cls-1" d="M119.85,192.26c1.8.95,3.15,2.2,4.05,3.76.9,1.55,1.35,3.21,1.35,4.97,0,1.48-.29,2.81-.87,3.99-.58,1.18-1.22,2.12-1.9,2.83-.69.71-1.84,1.82-3.46,3.33-.71.67-1.21,1.19-1.51,1.56-.3.37-.56.93-.79,1.69s-.34,1.79-.34,3.09h-5.92c0-1.73.16-3.12.48-4.18.32-1.06.88-2.22,1.69-3.49.49-.78,1.39-1.78,2.7-3.02,1.09-1.02,1.9-1.9,2.41-2.64.51-.74.77-1.62.77-2.64,0-1.34-.46-2.43-1.38-3.28-.92-.85-2.15-1.27-3.7-1.27-1.73,0-3.08.53-4.05,1.59-.97,1.06-1.46,2.43-1.46,4.13,0,.28.04.71.11,1.27h-6.35c-.07-.71-.11-1.23-.11-1.59,0-2.29.53-4.31,1.59-6.06,1.06-1.75,2.49-3.09,4.31-4.05s3.8-1.43,5.95-1.43c2.5,0,4.65.48,6.45,1.43ZM117.21,220.88v7.62h-7.62v-7.62h7.62Z"/>
    </g>
  </g>
</svg>