<?xml version="1.0" encoding="UTF-8"?>
<svg id="Camada_2" data-name="Camada 2" xmlns="http://www.w3.org/2000/svg" viewBox="0 0 375.3 230.66">
  <defs>
    <style>
      .cls-1 {
        fill: #feca8a;
      }
    </style>
  </defs>
  <g id="Camada_1-2" data-name="Camada 1">
    <g id="N25HEK">
      <g>
        <path class="cls-1" d="M90.33,161.89v64.02c0,2.03-3.74,4-5.73,4.23-4.85.56-24.8.79-29.14-.03-1.7-.32-2.75-1.88-3.83-3.07l-.4-65.16c-34.81,1.65-61.04-32.74-47.68-65.69,5.78-14.25,21.05-27.57,36.64-29.3,26.64-2.96,59.06,1.37,86.59-.05,50.25-2.58,98.45-33.48,134.54-66.34,3.76-1.24,7.29-.3,8.6,3.64l.08,219.72c-5.41,10.6-16-2.67-21.81-7.08-30.58-23.24-77.89-51.79-116.86-54.89-13.21-1.05-27.67.76-41.01-.01ZM258.24,20.05l-34.87,25.32c-27.48,16.88-58.2,30.86-90.88,32.95l.34,71.36c35.15,5.16,68.04,20.4,97.75,39.5l27.67,19.49V20.05ZM120.23,78.32H45.47c-17.5,0-32.98,17.96-33.4,34.86-.4,16.41,14.66,36.44,31.86,36.44h76.29v-71.31ZM78.06,161.89h-14.18l-1.15,1.15v54.82h15.33v-55.97Z"/>
        <path class="cls-1" d="M325.49,108.38l45.03-.11c5.89.93,6.54,9.59.79,11.43h-45.2c-5.42-2.13-5.62-8.53-.63-11.32Z"/>
        <path class="cls-1" d="M318.28,158.58c-4.89-4.5.44-12.71,6.69-10.14,8.64,6.64,24.34,11.71,32.12,18.49,6.06,5.28,1.31,12.52-5.33,10.69l-33.48-19.05Z"/>
        <path class="cls-1" d="M353.14,50.08c6.06-.82,9.34,6.54,3.63,11.37-2.4,2.03-29.32,17.39-31.79,18.04-7.58,1.98-11.42-5.46-5.79-10.38,4.28-3.74,19.36-11.58,25.18-14.69,2.02-1.08,6.93-4.09,8.77-4.34Z"/>
      </g>
    </g>
  </g>
</svg>