<?xml version="1.0" encoding="UTF-8"?>
<svg id="Camada_2" data-name="Camada 2" xmlns="http://www.w3.org/2000/svg" viewBox="0 0 1920.6 254.79">
  <defs>
    <style>
      .cls-1 {
        fill: none;
        stroke: #f98392;
        stroke-miterlimit: 10;
        stroke-width: 6.57px;
      }

      .cls-2 {
        fill: #feca8a;
      }

      .cls-3 {
        fill: #f98392;
      }
    </style>
  </defs>
  <g id="Camada_1-2" data-name="Camada 1">
    <g>
      <g>
        <path class="cls-3" d="M1920.6,190.98v21.26h-569.35c0-7.07-.05-14.2,0-21.26h569.35Z"/>
        <path class="cls-3" d="M1920.6,223.38v21.26h-569.35c-.04-7.07.01-14.19,0-21.26h569.35Z"/>
        <path class="cls-2" d="M1920.6,212.24v11.14h-569.35c0-3.7,0-7.44,0-11.14h569.35Z"/>
        <rect class="cls-2" x="1351.24" y="180.85" width="569.35" height="10.13"/>
        <path class="cls-2" d="M1920.6,244.64v10.13l-569.13.02c-.42-.16-.22-8.37-.23-10.14h569.35Z"/>
      </g>
      <g>
        <path class="cls-3" d="M1300.23,107.23v21.26H.09c.02-7.07-.11-14.2,0-21.26h1300.14Z"/>
        <path class="cls-3" d="M1300.23,139.64v21.26H.09c-.1-7.07.03-14.19,0-21.26h1300.14Z"/>
        <path class="cls-2" d="M1300.23,128.5v11.14H.09c-.02-3.7,0-7.44,0-11.14h1300.14Z"/>
        <rect class="cls-2" x=".09" y="97.11" width="1300.14" height="10.13"/>
        <path class="cls-2" d="M1300.23,160.9v10.13l-1299.62.02c-.96-.16-.5-8.37-.52-10.14h1300.14Z"/>
      </g>
      <g>
        <g>
          <line class="cls-1" x1="520.15" y1="59.65" x2="520.15" y2="40.86"/>
          <path class="cls-1" d="M670.44,59.65c0,20.61-16.96,37.57-37.57,37.57-20.61,0-37.57-16.96-37.57-37.57v-18.79c0-20.61-16.96-37.57-37.57-37.57-20.61,0-37.57,16.96-37.57,37.57"/>
        </g>
        <g>
          <line class="cls-1" x1="369.85" y1="59.65" x2="369.85" y2="40.86"/>
          <path class="cls-1" d="M520.15,59.65c0,20.61-16.96,37.57-37.57,37.57-20.61,0-37.57-16.96-37.57-37.57v-18.79c0-20.61-16.96-37.57-37.57-37.57-20.61,0-37.57,16.96-37.57,37.57"/>
        </g>
        <g>
          <line class="cls-1" x1="219.55" y1="59.65" x2="219.55" y2="40.86"/>
          <path class="cls-1" d="M369.85,59.65c0,20.61-16.96,37.57-37.57,37.57s-37.57-16.96-37.57-37.57v-18.79c0-20.61-16.96-37.57-37.57-37.57-20.61,0-37.57,16.96-37.57,37.57"/>
        </g>
        <g>
          <polyline class="cls-1" points="69.25 40.86 69.25 59.65 69.25 97.22"/>
          <path class="cls-1" d="M219.55,59.65c0,20.61-16.96,37.57-37.57,37.57-20.61,0-37.57-16.96-37.57-37.57v-18.79c0-20.61-16.96-37.57-37.57-37.57s-37.57,16.96-37.57,37.57"/>
        </g>
      </g>
      <g>
        <path class="cls-3" d="M1385.8,197.2l-15.04,15.04-89.32-89.32c5-5,10.03-10.05,15.04-15.04l89.32,89.32Z"/>
        <rect class="cls-2" x="1334.55" y="82.84" width="10.13" height="121.84" transform="translate(290.71 989.36) rotate(-45)"/>
        <path class="cls-2" d="M1371.68,213.2l-7.88,7.88-84.7-84.7c2.62-2.62,5.26-5.26,7.88-7.88l84.7,84.7Z"/>
        <path class="cls-3" d="M1372.13,229.49l-15.04,15.04-89.85-89.85c5-5,10.03-10.05,15.04-15.04l89.85,89.85Z"/>
        <path class="cls-2" d="M1359.4,246.91l-7.88,7.88-85.1-85.1c2.62-2.62,5.26-5.26,7.88-7.88l85.1,85.1Z"/>
      </g>
    </g>
  </g>
</svg>