<?xml version="1.0" encoding="UTF-8"?>
<svg id="Camada_2" data-name="Camada 2" xmlns="http://www.w3.org/2000/svg" viewBox="0 0 871.01 109.52">
  <defs>
    <style>
      .cls-1 {
        fill: #feca8a;
      }
    </style>
  </defs>
  <g id="Camada_1-2" data-name="Camada 1">
    <g>
      <path class="cls-1" d="M219.03,109.52h-13.37c0-53.02-43.13-96.15-96.15-96.15S13.37,56.5,13.37,109.52H0C0,49.13,49.13,0,109.52,0s109.52,49.13,109.52,109.52Z"/>
      <path class="cls-1" d="M349.85,109.52h-13.37c0-53.02-43.13-96.15-96.15-96.15s-96.15,43.13-96.15,96.15h-13.37C130.82,49.13,179.95,0,240.34,0s109.52,49.13,109.52,109.52Z"/>
      <path class="cls-1" d="M479.69,109.52h-13.37c0-53.02-43.13-96.15-96.15-96.15s-96.15,43.13-96.15,96.15h-13.37c0-60.39,49.13-109.52,109.52-109.52s109.52,49.13,109.52,109.52Z"/>
      <path class="cls-1" d="M610.51,109.52h-13.37c0-53.02-43.13-96.15-96.15-96.15s-96.15,43.13-96.15,96.15h-13.37c0-60.39,49.13-109.52,109.52-109.52s109.52,49.13,109.52,109.52Z"/>
      <path class="cls-1" d="M740.18,109.52h-13.37c0-53.02-43.13-96.15-96.15-96.15s-96.15,43.13-96.15,96.15h-13.37c0-60.39,49.13-109.52,109.52-109.52s109.52,49.13,109.52,109.52Z"/>
      <path class="cls-1" d="M871.01,109.52h-13.37c0-53.02-43.13-96.15-96.15-96.15s-96.15,43.13-96.15,96.15h-13.37c0-60.39,49.13-109.52,109.52-109.52s109.52,49.13,109.52,109.52Z"/>
    </g>
  </g>
</svg>