<?xml version="1.0" encoding="UTF-8"?>
<svg id="Camada_2" data-name="Camada 2" xmlns="http://www.w3.org/2000/svg" viewBox="0 0 103.35 490.55">
  <defs>
    <style>
      .cls-1 {
        fill: none;
        stroke: #f98392;
        stroke-miterlimit: 10;
        stroke-width: 9.5px;
      }
    </style>
  </defs>
  <g id="Camada_1-2" data-name="Camada 1">
    <g>
      <g>
        <line class="cls-1" x1="61.06" y1="125.01" x2="42.29" y2="125.01"/>
        <path class="cls-1" d="M61.06,4.75c20.59,0,37.54,13.57,37.54,30.07s-16.95,30.07-37.54,30.07h-18.77c-20.59,0-37.54,13.57-37.54,30.07,0,16.49,16.95,30.07,37.54,30.07"/>
      </g>
      <g>
        <line class="cls-1" x1="61.06" y1="245.27" x2="42.29" y2="245.27"/>
        <path class="cls-1" d="M61.06,125.01c20.59,0,37.54,13.57,37.54,30.07,0,16.49-16.95,30.07-37.54,30.07h-18.77c-20.59,0-37.54,13.57-37.54,30.07,0,16.49,16.95,30.07,37.54,30.07"/>
      </g>
      <g>
        <line class="cls-1" x1="61.06" y1="365.53" x2="42.29" y2="365.53"/>
        <path class="cls-1" d="M61.06,245.27c20.59,0,37.54,13.57,37.54,30.07,0,16.49-16.95,30.07-37.54,30.07h-18.77c-20.59,0-37.54,13.57-37.54,30.07,0,16.49,16.95,30.07,37.54,30.07"/>
      </g>
      <g>
        <polyline class="cls-1" points="42.29 485.8 61.06 485.8 98.6 485.8"/>
        <path class="cls-1" d="M61.06,365.53c20.59,0,37.54,13.57,37.54,30.07,0,16.49-16.95,30.07-37.54,30.07h-18.77c-20.59,0-37.54,13.57-37.54,30.07,0,16.49,16.95,30.07,37.54,30.07"/>
      </g>
    </g>
  </g>
</svg>